<svg width="100" height="100" viewBox="0 0 100 100" fill="none" xmlns="http://www.w3.org/2000/svg">
<ellipse cx="49" cy="49.5" rx="26" ry="24.5" fill="black"/>
<path d="M50 95C58.9001 95 67.6004 92.3608 75.0006 87.4161C82.4009 82.4715 88.1686 75.4434 91.5746 67.2208C94.9805 58.9981 95.8717 49.9501 94.1353 41.2209C92.399 32.4918 88.1131 24.4736 81.8198 18.1802C75.5264 11.8869 67.5082 7.60102 58.7791 5.86469C50.0499 4.12835 41.0019 5.0195 32.7792 8.42545C24.5566 11.8314 17.5285 17.5991 12.5839 24.9994C7.63921 32.3996 5 41.0999 5 50C5.01379 61.9305 9.75928 73.3684 18.1954 81.8046C26.6316 90.2407 38.0695 94.9862 50 95ZM35.4372 59.668L53.759 41.3462H41.3461C40.4281 41.3462 39.5476 40.9815 38.8985 40.3323C38.2493 39.6831 37.8846 38.8027 37.8846 37.8846C37.8846 36.9666 38.2493 36.0861 38.8985 35.437C39.5476 34.7878 40.4281 34.4231 41.3461 34.4231H62.1154C63.0325 34.4262 63.9111 34.7919 64.5596 35.4404C65.2081 36.0889 65.5738 36.9675 65.5769 37.8846V58.6539C65.5769 59.5719 65.2122 60.4524 64.563 61.1015C63.9139 61.7507 63.0334 62.1154 62.1154 62.1154C61.1973 62.1154 60.3169 61.7507 59.6677 61.1015C59.0185 60.4524 58.6538 59.5719 58.6538 58.6539V46.241L40.332 64.5628C39.6827 65.2108 38.8027 65.5744 37.8854 65.574C36.9681 65.5735 36.0884 65.2088 35.4398 64.5602C34.7912 63.9116 34.4265 63.032 34.426 62.1146C34.4256 61.1973 34.7892 60.3173 35.4372 59.668Z" fill="#DBFF71"/>
</svg>
