<svg width="100" height="100" viewBox="0 0 100 100" fill="none" xmlns="http://www.w3.org/2000/svg">
<ellipse cx="49" cy="49.5" rx="26" ry="24.5" fill="black"/>
<path d="M95 50C95 41.0999 92.3608 32.3996 87.4161 24.9994C82.4715 17.5991 75.4434 11.8314 67.2208 8.42544C58.9981 5.0195 49.9501 4.12835 41.2209 5.86468C32.4918 7.60102 24.4736 11.8869 18.1802 18.1802C11.8869 24.4736 7.60102 32.4918 5.86469 41.2209C4.12835 49.9501 5.0195 58.9981 8.42545 67.2208C11.8314 75.4434 17.5991 82.4715 24.9994 87.4161C32.3996 92.3608 41.0999 95 50 95C61.9305 94.9862 73.3684 90.2407 81.8046 81.8046C90.2407 73.3684 94.9862 61.9305 95 50ZM59.668 64.5628L41.3462 46.241L41.3462 58.6539C41.3462 59.5719 40.9815 60.4524 40.3323 61.1015C39.6831 61.7507 38.8027 62.1154 37.8846 62.1154C36.9666 62.1154 36.0861 61.7507 35.437 61.1015C34.7878 60.4524 34.4231 59.5719 34.4231 58.6539L34.4231 37.8846C34.4262 36.9675 34.7919 36.0889 35.4404 35.4404C36.0889 34.7919 36.9675 34.4262 37.8846 34.4231H58.6539C59.5719 34.4231 60.4524 34.7878 61.1015 35.437C61.7507 36.0861 62.1154 36.9666 62.1154 37.8846C62.1154 38.8027 61.7507 39.6831 61.1015 40.3323C60.4524 40.9815 59.5719 41.3462 58.6539 41.3462L46.241 41.3462L64.5628 59.668C65.2108 60.3173 65.5744 61.1973 65.574 62.1146C65.5735 63.0319 65.2088 63.9116 64.5602 64.5602C63.9116 65.2088 63.032 65.5735 62.1146 65.574C61.1973 65.5744 60.3173 65.2108 59.668 64.5628Z" fill="#DBFF71"/>
</svg>
